<svg width="481" height="79" viewBox="0 0 481 79" fill="none" xmlns="http://www.w3.org/2000/svg">
<path d="M96.8601 61.0299L112.36 18.3799H131.25L120.28 48.5399H141.51L136.97 61.0299H96.8601Z" fill="white"/>
<path d="M142.46 42.4799L151.2 18.3799H170.09L160.92 43.5699C159.49 47.4999 160.71 50.3599 165.25 50.3599C169.09 50.3599 171.28 48.2599 172.5 44.9399L182.16 18.3799H201.05L191.15 45.6999C187.37 56.1499 178.2 61.9399 163.8 61.9399C145.83 61.9399 138.15 54.3899 142.48 42.4699" fill="white"/>
<path d="M198.1 34.83L198.34 34.16C202.06 23.96 212.75 17.47 226.79 17.47C240.83 17.47 250.79 24.87 250.4 36.02L231.24 37.76C232.12 32.37 230.23 29.35 225.67 29.35C222.2 29.35 218.75 31.66 216.9 36.81L216.66 37.48C213.7 45.58 215.71 50.06 221.5 50.06C225.86 50.06 228.75 47.14 230.27 41.9L248.7 44.52C245.47 55.73 233.26 61.94 219.82 61.94C201.54 61.94 192.37 50.55 198.1 34.83Z" fill="white"/>
<path d="M246.24 61.0299L261.74 18.3799H280.63L278.74 23.6499C277.4 27.3699 276 30.1399 273.53 34.2799L274.29 34.6399L291.56 18.3699H311.21L291.93 34.9999L296.29 61.0099H277.65L276.46 45.3499L268.81 51.1999L265.12 61.0099H246.23L246.24 61.0299Z" fill="white"/>
<path d="M299.83 61.0299L304.7 47.6599H321.48L316.61 61.0299H299.83Z" fill="#FDD500"/>
<path d="M320.65 61.0299L336.15 18.3799H368.5C377.85 18.3799 382.66 23.7699 379.95 31.2399L379.71 31.9099C378.34 35.6599 375.2 37.9999 370.05 39.1299L369.99 39.7399C374.38 40.8399 376.39 44.3399 374.35 49.9799L374.11 50.6499C371.79 56.9899 364.67 61.0399 355.77 61.0399H320.65V61.0299ZM343.34 50.5199H350.41C352.88 50.5199 354.49 49.5799 355.16 47.9899L355.31 47.6199C356.04 45.8499 354.7 44.4799 352.26 44.4799H345.53L343.34 50.5099V50.5199ZM349.25 34.3199H356.29C358.51 34.3199 360.04 33.4999 360.59 32.0399L360.71 31.6999C361.29 30.0899 360.16 28.8999 357.97 28.8999H351.24L349.26 34.3199H349.25Z" fill="#FDD500"/>
<path d="M374.49 61.0299L389.99 18.3799H431.3L427.31 29.3499H404.89L403.03 34.5299H424.2L420.54 44.5799H399.37L397.36 50.0599H420.39L416.4 61.0299H374.49Z" fill="#FDD500"/>
<path d="M433.02 61.0299L443.89 31.1799H430.55L435.18 18.3799H480.75L476.12 31.1799H462.78L451.9 61.0299H433.02Z" fill="#FDD500"/>
<path d="M56.13 2.62992C45.14 -3.79008 42.16 10.3699 36.84 5.72993C30.98 -2.51007 17.64 0.979925 17.64 11.2899C16.42 17.9499 35.93 32.5599 39.26 37.1699L57.88 18.5499C62.4 14.0399 61.82 6.33992 56.13 2.62992ZM43.86 26.1799L39.26 22.8399L34.67 26.1799L36.42 20.7699L31.82 17.4299H37.51L39.26 12.0299L41.01 17.4299H46.7L42.1 20.7699L43.86 26.1799Z" fill="#FDD500"/>
<path d="M57.87 60.8899L39.25 42.2699C35.87 47.0099 16.47 61.3999 17.63 68.1499C17.63 78.4599 30.98 81.9499 36.83 73.7099C38.9 71.5699 41.62 73.2399 43.11 75.1599C52.76 84.9799 67.36 70.4899 57.86 60.8899M43.84 67.4199L39.24 64.0799L34.65 67.4199L36.4 62.0099L31.8 58.6699H37.49L39.24 53.2599L40.99 58.6699H46.68L42.08 62.0099L43.84 67.4199Z" fill="#FDD500"/>
<path d="M18.0901 21.0999C8.50004 11.6099 -5.98995 26.1899 3.83005 35.8599C5.76005 37.3499 7.41005 40.0599 5.27005 42.1399C-2.96995 47.9999 0.510047 61.3399 10.83 61.3399C17.4901 62.5599 32.0901 43.0299 36.7001 39.7099L18.0801 21.0899L18.0901 21.0999ZM21.4801 41.3899L23.2301 46.7899L18.6401 43.4499L14.0401 46.7899L15.7901 41.3899L11.2001 38.0499H16.8901L18.6401 32.6499L20.3901 38.0499H26.0801L21.4801 41.3899Z" fill="#FDD500"/>
<path d="M74.9301 43.8299C72.9801 42.2699 70.9701 39.5099 73.2401 37.2999C85.2201 28.0199 71.5201 11.0399 60.4201 21.0999L41.8101 39.7199C46.5301 43.1499 60.9501 62.4599 67.6801 61.3499C76.4601 61.6599 81.4701 49.9399 74.9301 43.8399M62.7101 41.3999L64.4701 46.7999L59.8701 43.4599L55.2801 46.7999L57.0301 41.3999L52.4301 38.0599H58.1101L59.8701 32.6599L61.6301 38.0599H67.3101L62.7101 41.3999Z" fill="#FDD500"/>
</svg>
